<?xml version="1.0" standalone="no"?>
<!DOCTYPE svg PUBLIC "-//W3C//DTD SVG 20010904//EN"
 "http://www.w3.org/TR/2001/REC-SVG-20010904/DTD/svg10.dtd">
<svg version="1.0" xmlns="http://www.w3.org/2000/svg"
 width="512.000000pt" height="512.000000pt" viewBox="0 0 512.000000 512.000000"
 preserveAspectRatio="xMidYMid meet">
<metadata>
Created by potrace 1.11, written by Peter Selinger 2001-2013
</metadata>
<g transform="translate(0.000000,512.000000) scale(0.100000,-0.100000)"
fill="#000000" stroke="none">
<path d="M1954 4107 c-11 -12 -33 -40 -49 -62 -16 -22 -60 -73 -98 -115 -38
-41 -83 -94 -99 -117 l-30 -41 -72 44 c-39 24 -135 73 -214 108 -79 36 -179
86 -223 112 -93 54 -79 59 -166 -63 -32 -45 -106 -138 -164 -207 -77 -90 -120
-153 -155 -221 -26 -52 -49 -95 -50 -95 -1 0 -31 14 -68 31 -36 17 -71 27 -77
24 -6 -4 -20 -28 -32 -53 -11 -26 -53 -100 -94 -165 -129 -206 -158 -294 -150
-452 3 -55 12 -125 20 -155 l15 -55 -63 -100 c-115 -183 -157 -289 -175 -443
-26 -209 47 -483 221 -831 135 -271 203 -331 373 -331 123 0 312 51 523 140
l112 47 45 -58 c105 -135 265 -167 571 -114 316 56 572 151 665 247 l39 41 40
-40 c94 -98 311 -181 621 -239 344 -64 506 -36 616 106 l46 58 88 -39 c208
-90 419 -149 533 -149 178 0 255 64 382 319 157 317 229 559 228 766 -2 181
-47 311 -182 526 l-60 95 15 55 c8 30 17 97 21 149 9 159 -22 253 -150 456
-41 66 -84 140 -95 167 -12 26 -27 50 -35 53 -8 3 -43 -9 -77 -26 -34 -17 -63
-30 -65 -28 -1 2 -17 32 -35 68 -48 97 -88 152 -205 290 -59 69 -126 155 -150
192 -25 36 -49 69 -55 73 -6 4 -34 -7 -63 -25 -51 -30 -141 -75 -344 -170 -56
-27 -122 -62 -146 -79 l-44 -30 -31 43 c-17 24 -62 76 -100 117 -37 41 -89
102 -116 137 -26 34 -50 62 -54 62 -4 0 -27 -14 -52 -31 -25 -16 -103 -59
-174 -95 -186 -93 -269 -161 -328 -266 -12 -21 -25 -38 -30 -38 -4 0 -15 15
-24 33 -51 101 -146 177 -344 278 -74 38 -153 80 -176 94 l-41 25 -19 -23z
m99 -134 c23 -14 80 -44 127 -66 151 -70 237 -143 290 -247 l23 -44 -59 -56
c-47 -43 -359 -285 -385 -298 -3 -1 -41 21 -85 51 -43 29 -126 73 -183 97
l-103 45 5 61 c11 111 59 201 177 330 40 44 84 96 99 116 14 21 32 38 39 38 7
0 31 -12 55 -27z m1108 -11 c15 -20 58 -71 97 -113 123 -135 169 -222 179
-339 l4 -55 -108 -48 c-89 -39 -184 -93 -247 -141 -14 -10 -345 236 -414 307
l-44 45 18 33 c59 116 134 180 309 264 61 29 119 60 130 69 31 24 48 19 76
-22z m-1973 -85 c31 -18 116 -59 187 -91 157 -69 241 -123 237 -151 -6 -49
-22 -128 -26 -132 -2 -3 -33 14 -69 36 -35 23 -74 41 -85 41 -15 0 -34 -20
-65 -67 -24 -38 -92 -124 -150 -193 l-107 -125 -59 56 c-57 54 -176 124 -253
149 -21 6 -38 14 -38 16 0 3 12 28 26 57 34 68 81 131 176 239 42 48 91 109
109 135 29 43 47 62 57 63 2 0 29 -15 60 -33z m2818 25 c6 -4 26 -29 44 -57
19 -27 64 -83 100 -125 103 -117 149 -179 182 -243 16 -32 28 -60 26 -62 -2
-2 -37 -16 -79 -32 -91 -35 -173 -89 -227 -147 l-40 -44 -99 115 c-54 63 -122
150 -151 193 -37 55 -60 80 -74 80 -10 0 -49 -18 -85 -40 -37 -22 -68 -38 -70
-37 -1 2 -7 28 -13 58 -6 30 -13 62 -16 71 -8 27 73 79 231 150 77 34 165 77
195 95 60 36 60 36 76 25z m-1358 -495 c37 -34 123 -103 192 -152 149 -107
300 -255 352 -345 l38 -64 -105 -53 c-229 -114 -339 -216 -440 -406 -41 -77
-115 -294 -115 -338 0 -10 -4 -19 -10 -19 -5 0 -10 9 -10 19 0 44 -74 261
-115 338 -102 192 -218 298 -452 412 -103 50 -101 44 -41 134 67 99 157 186
318 305 85 64 183 142 217 174 35 33 70 58 83 58 12 0 49 -26 88 -63z m-1113
-27 c29 -17 112 -57 184 -89 72 -33 154 -73 181 -91 l49 -32 -52 -63 c-45 -54
-120 -169 -130 -198 -3 -11 -63 18 -141 68 -87 56 -94 54 -160 -47 -29 -46
-100 -137 -157 -204 -57 -66 -118 -138 -135 -159 l-31 -39 -41 33 -42 33 0
103 c0 175 51 300 190 460 38 44 100 119 136 168 37 48 74 87 82 87 8 0 38
-14 67 -30z m2199 -57 c36 -49 97 -123 134 -166 138 -157 183 -262 190 -442
l4 -120 -43 -34 -43 -35 -30 39 c-17 21 -78 93 -135 159 -57 67 -127 157 -156
202 -30 45 -60 84 -68 87 -16 6 -40 -5 -156 -74 -41 -24 -76 -39 -78 -33 -10
30 -84 142 -130 198 l-53 64 56 35 c31 20 95 53 142 74 48 20 128 59 177 84
50 26 97 48 106 48 9 1 46 -38 83 -86z m-3136 38 c20 -10 77 -31 127 -46 141
-43 240 -99 300 -172 l26 -32 -27 -52 c-56 -112 -83 -214 -84 -318 0 -65 -2
-73 -17 -67 -235 79 -401 140 -453 165 -36 17 -71 31 -77 31 -7 0 -28 -30 -47
-67 -33 -66 -34 -67 -41 -40 -4 16 -5 70 -3 120 6 112 29 173 116 309 34 53
72 117 84 142 25 52 39 56 96 27z m4020 -27 c12 -25 50 -89 84 -142 90 -141
110 -197 116 -318 6 -135 -5 -154 -43 -74 -16 33 -36 62 -46 65 -10 3 -48 -9
-86 -28 -37 -19 -131 -55 -208 -80 -77 -25 -164 -54 -193 -66 -29 -12 -55 -21
-57 -21 -3 0 -5 33 -5 73 -1 102 -28 205 -84 315 l-26 52 22 31 c50 68 159
130 313 178 55 17 111 38 125 46 45 26 64 19 88 -31z m-2673 -685 c142 -69
153 -76 240 -163 60 -60 102 -113 124 -154 125 -240 204 -790 134 -942 -55
-121 -209 -198 -528 -266 -164 -34 -362 -40 -435 -11 -100 38 -168 146 -251
397 -66 201 -99 369 -99 503 0 132 12 190 60 294 48 104 80 150 202 290 54 63
112 135 129 161 53 78 48 78 168 17 58 -30 173 -87 256 -126z m1648 118 c19
-29 79 -105 134 -168 111 -128 169 -210 201 -280 93 -204 82 -447 -37 -807
-81 -247 -141 -346 -239 -394 -43 -21 -60 -23 -182 -22 -153 1 -316 30 -498
90 -173 56 -253 112 -295 204 -41 89 -33 310 19 582 46 238 104 373 213 490
78 85 170 147 306 208 55 25 150 70 210 101 61 31 115 54 122 52 6 -3 27 -28
46 -56z m-2902 -157 c173 -59 273 -107 346 -167 42 -34 42 -36 28 -63 -8 -15
-27 -68 -41 -117 -24 -78 -27 -105 -27 -233 0 -111 5 -170 22 -250 26 -128 81
-322 121 -432 17 -45 30 -85 30 -89 0 -10 -199 -92 -310 -127 -168 -53 -289
-59 -369 -18 -74 39 -167 194 -264 441 -108 276 -126 438 -71 625 20 68 71
166 164 309 39 61 79 131 90 155 22 53 34 58 80 38 19 -9 110 -41 201 -72z
m4019 35 c10 -23 56 -102 103 -176 99 -157 129 -214 151 -289 37 -124 38 -273
1 -415 -44 -168 -183 -482 -253 -571 -101 -128 -217 -139 -487 -50 -136 46
-275 104 -275 115 0 4 13 44 30 89 40 110 95 305 121 432 43 205 27 434 -40
585 l-20 44 52 42 c74 59 166 102 328 155 78 25 164 56 191 69 28 13 57 21 65
18 8 -3 23 -25 33 -48z"/>
</g>
</svg>
