<svg version="1.1" viewBox="0.0 0.0 579.503937007874 445.06824146981626" fill="none" stroke="none" stroke-linecap="square" stroke-miterlimit="10" xmlns:xlink="http://www.w3.org/1999/xlink" xmlns="http://www.w3.org/2000/svg"><clipPath id="p.0"><path d="m0 0l579.50397 0l0 445.06824l-579.50397 0l0 -445.06824z" clip-rule="nonzero"/></clipPath><g clip-path="url(#p.0)"><path fill="#000000" fill-opacity="0.0" d="m0 0l579.50397 0l0 445.06824l-579.50397 0z" fill-rule="evenodd"/><path fill="#434343" d="m333.69028 188.38058l0 0c0 -3.113678 2.5241394 -5.637802 5.6378174 -5.637802l0 0c1.4952393 0 2.9292297 0.5939789 3.9865112 1.6512756c1.0572815 1.0572815 1.6512756 2.4912872 1.6512756 3.9865265l0 0c0 3.1136627 -2.5241394 5.637787 -5.637787 5.637787l0 0c-3.113678 0 -5.6378174 -2.5241241 -5.6378174 -5.637787z" fill-rule="evenodd"/><path stroke="#434343" stroke-width="1.0" stroke-linejoin="round" stroke-linecap="butt" d="m333.69028 188.38058l0 0c0 -3.113678 2.5241394 -5.637802 5.6378174 -5.637802l0 0c1.4952393 0 2.9292297 0.5939789 3.9865112 1.6512756c1.0572815 1.0572815 1.6512756 2.4912872 1.6512756 3.9865265l0 0c0 3.1136627 -2.5241394 5.637787 -5.637787 5.637787l0 0c-3.113678 0 -5.6378174 -2.5241241 -5.6378174 -5.637787z" fill-rule="evenodd"/><path fill="#434343" d="m144.96588 393.4908l0 0c0 -3.113678 2.5241241 -5.637787 5.637787 -5.637787l0 0c1.4952393 0 2.929245 0.5939636 3.9865265 1.6512756c1.0572968 1.0572815 1.6512756 2.491272 1.6512756 3.9865112l0 0c0 3.113678 -2.5241241 5.637787 -5.637802 5.637787l0 0c-3.1136627 0 -5.637787 -2.524109 -5.637787 -5.637787z" fill-rule="evenodd"/><path stroke="#434343" stroke-width="1.0" stroke-linejoin="round" stroke-linecap="butt" d="m144.96588 393.4908l0 0c0 -3.113678 2.5241241 -5.637787 5.637787 -5.637787l0 0c1.4952393 0 2.929245 0.5939636 3.9865265 1.6512756c1.0572968 1.0572815 1.6512756 2.491272 1.6512756 3.9865112l0 0c0 3.113678 -2.5241241 5.637787 -5.637802 5.637787l0 0c-3.1136627 0 -5.637787 -2.524109 -5.637787 -5.637787z" fill-rule="evenodd"/><path fill="#434343" d="m339.72964 337.6509l0 0c0 -3.1136475 2.5241394 -5.637787 5.6378174 -5.637787l0 0c1.4952393 0 2.9292297 0.59399414 3.9865112 1.6512756c1.0572815 1.0572815 1.6512756 2.491272 1.6512756 3.9865112l0 0c0 3.113678 -2.5241394 5.6378174 -5.637787 5.6378174l0 0c-3.113678 0 -5.6378174 -2.5241394 -5.6378174 -5.6378174z" fill-rule="evenodd"/><path stroke="#434343" stroke-width="1.0" stroke-linejoin="round" stroke-linecap="butt" d="m339.72964 337.6509l0 0c0 -3.1136475 2.5241394 -5.637787 5.6378174 -5.637787l0 0c1.4952393 0 2.9292297 0.59399414 3.9865112 1.6512756c1.0572815 1.0572815 1.6512756 2.491272 1.6512756 3.9865112l0 0c0 3.113678 -2.5241394 5.6378174 -5.637787 5.6378174l0 0c-3.113678 0 -5.6378174 -2.5241394 -5.6378174 -5.6378174z" fill-rule="evenodd"/><path fill="#434343" d="m39.144356 40.766403l0 0c0 -3.1136665 2.524128 -5.6377945 5.6377983 -5.6377945l0 0c1.4952354 0 2.9292297 0.5939789 3.9865227 1.6512718c1.0572891 1.0572929 1.6512718 2.4912872 1.6512718 3.9865227l0 0c0 3.1136703 -2.524128 5.6377945 -5.6377945 5.6377945l0 0c-3.1136703 0 -5.6377983 -2.5241241 -5.6377983 -5.6377945z" fill-rule="evenodd"/><path stroke="#434343" stroke-width="1.0" stroke-linejoin="round" stroke-linecap="butt" d="m39.144356 40.766403l0 0c0 -3.1136665 2.524128 -5.6377945 5.6377983 -5.6377945l0 0c1.4952354 0 2.9292297 0.5939789 3.9865227 1.6512718c1.0572891 1.0572929 1.6512718 2.4912872 1.6512718 3.9865227l0 0c0 3.1136703 -2.524128 5.6377945 -5.6377945 5.6377945l0 0c-3.1136703 0 -5.6377983 -2.5241241 -5.6377983 -5.6377945z" fill-rule="evenodd"/><path fill="#434343" d="m248.49606 40.766403l0 0c0 -3.1136665 2.5241241 -5.6377945 5.637802 -5.6377945l0 0c1.495224 0 2.9292145 0.5939789 3.9865265 1.6512718c1.0572815 1.0572929 1.6512756 2.4912872 1.6512756 3.9865227l0 0c0 3.1136703 -2.5241394 5.6377945 -5.637802 5.6377945l0 0c-3.113678 0 -5.637802 -2.5241241 -5.637802 -5.6377945z" fill-rule="evenodd"/><path stroke="#434343" stroke-width="1.0" stroke-linejoin="round" stroke-linecap="butt" d="m248.49606 40.766403l0 0c0 -3.1136665 2.5241241 -5.6377945 5.637802 -5.6377945l0 0c1.495224 0 2.9292145 0.5939789 3.9865265 1.6512718c1.0572815 1.0572929 1.6512756 2.4912872 1.6512756 3.9865227l0 0c0 3.1136703 -2.5241394 5.6377945 -5.637802 5.6377945l0 0c-3.113678 0 -5.637802 -2.5241241 -5.637802 -5.6377945z" fill-rule="evenodd"/><path fill="#434343" d="m162.82414 132.9685l0 0c0 -3.1136627 2.5241241 -5.6377945 5.637802 -5.6377945l0 0c1.4952393 0 2.9292297 0.5939789 3.9865265 1.651268c1.0572815 1.0572968 1.6512604 2.4912872 1.6512604 3.9865265l0 0c0 3.1136627 -2.5241241 5.637787 -5.637787 5.637787l0 0c-3.113678 0 -5.637802 -2.5241241 -5.637802 -5.637787z" fill-rule="evenodd"/><path stroke="#434343" stroke-width="1.0" stroke-linejoin="round" stroke-linecap="butt" d="m162.82414 132.9685l0 0c0 -3.1136627 2.5241241 -5.6377945 5.637802 -5.6377945l0 0c1.4952393 0 2.9292297 0.5939789 3.9865265 1.651268c1.0572815 1.0572968 1.6512604 2.4912872 1.6512604 3.9865265l0 0c0 3.1136627 -2.5241241 5.637787 -5.637787 5.637787l0 0c-3.113678 0 -5.637802 -2.5241241 -5.637802 -5.637787z" fill-rule="evenodd"/><path fill="#434343" d="m541.01575 287.56168l0 0c0 -3.113678 2.524109 -5.637787 5.6378174 -5.637787l0 0c1.4952393 0 2.9291992 0.5939636 3.9865112 1.6512756c1.057312 1.0572815 1.6512451 2.491272 1.6512451 3.9865112l0 0c0 3.113678 -2.524109 5.637787 -5.6377563 5.637787l0 0c-3.1137085 0 -5.6378174 -2.524109 -5.6378174 -5.637787z" fill-rule="evenodd"/><path stroke="#434343" stroke-width="1.0" stroke-linejoin="round" stroke-linecap="butt" d="m541.01575 287.56168l0 0c0 -3.113678 2.524109 -5.637787 5.6378174 -5.637787l0 0c1.4952393 0 2.9291992 0.5939636 3.9865112 1.6512756c1.057312 1.0572815 1.6512451 2.491272 1.6512451 3.9865112l0 0c0 3.113678 -2.524109 5.637787 -5.6377563 5.637787l0 0c-3.1137085 0 -5.6378174 -2.524109 -5.6378174 -5.637787z" fill-rule="evenodd"/><path fill="#434343" d="m552.2913 144.2441l0 0c0 -3.1136627 2.52417 -5.637802 5.6378174 -5.637802l0 0c1.4952393 0 2.9291992 0.59399414 3.9865112 1.6512756c1.057312 1.0572968 1.6513062 2.4912872 1.6513062 3.9865265l0 0c0 3.1136627 -2.52417 5.637802 -5.6378174 5.637802l0 0c-3.1136475 0 -5.6378174 -2.5241394 -5.6378174 -5.637802z" fill-rule="evenodd"/><path stroke="#434343" stroke-width="1.0" stroke-linejoin="round" stroke-linecap="butt" d="m552.2913 144.2441l0 0c0 -3.1136627 2.52417 -5.637802 5.6378174 -5.637802l0 0c1.4952393 0 2.9291992 0.59399414 3.9865112 1.6512756c1.057312 1.0572968 1.6513062 2.4912872 1.6513062 3.9865265l0 0c0 3.1136627 -2.52417 5.637802 -5.6378174 5.637802l0 0c-3.1136475 0 -5.6378174 -2.5241394 -5.6378174 -5.637802z" fill-rule="evenodd"/><path fill="#434343" d="m10.818897 171.68504l0 0c0 -3.113678 2.524127 -5.637802 5.6377964 -5.637802l0 0c1.4952354 0 2.9292316 0.5939789 3.9865227 1.6512756c1.057291 1.0572968 1.6512718 2.4912872 1.6512718 3.9865265l0 0c0 3.1136627 -2.524126 5.637787 -5.6377945 5.637787l0 0c-3.1136694 0 -5.6377964 -2.5241241 -5.6377964 -5.637787z" fill-rule="evenodd"/><path stroke="#434343" stroke-width="1.0" stroke-linejoin="round" stroke-linecap="butt" d="m10.818897 171.68504l0 0c0 -3.113678 2.524127 -5.637802 5.6377964 -5.637802l0 0c1.4952354 0 2.9292316 0.5939789 3.9865227 1.6512756c1.057291 1.0572968 1.6512718 2.4912872 1.6512718 3.9865265l0 0c0 3.1136627 -2.524126 5.637787 -5.6377945 5.637787l0 0c-3.1136694 0 -5.6377964 -2.5241241 -5.6377964 -5.637787z" fill-rule="evenodd"/><path fill="#434343" d="m10.818897 416.042l0 0c0 -3.113678 2.524127 -5.637787 5.6377964 -5.637787l0 0c1.4952354 0 2.9292316 0.5939636 3.9865227 1.6512756c1.057291 1.0572815 1.6512718 2.491272 1.6512718 3.9865112l0 0c0 3.113678 -2.524126 5.637787 -5.6377945 5.637787l0 0c-3.1136694 0 -5.6377964 -2.524109 -5.6377964 -5.637787z" fill-rule="evenodd"/><path stroke="#434343" stroke-width="1.0" stroke-linejoin="round" stroke-linecap="butt" d="m10.818897 416.042l0 0c0 -3.113678 2.524127 -5.637787 5.6377964 -5.637787l0 0c1.4952354 0 2.9292316 0.5939636 3.9865227 1.6512756c1.057291 1.0572815 1.6512718 2.491272 1.6512718 3.9865112l0 0c0 3.113678 -2.524126 5.637787 -5.6377945 5.637787l0 0c-3.1136694 0 -5.6377964 -2.524109 -5.6377964 -5.637787z" fill-rule="evenodd"/><path fill="#434343" d="m79.11286 276.2861l0 0c0 -3.113678 2.5241241 -5.6378174 5.6377945 -5.6378174l0 0c1.4952393 0 2.9292297 0.59399414 3.9865265 1.6512756c1.0572891 1.057312 1.651268 2.4913025 1.651268 3.9865417l0 0c0 3.1136475 -2.5241241 5.637787 -5.6377945 5.637787l0 0c-3.1136703 0 -5.6377945 -2.5241394 -5.6377945 -5.637787z" fill-rule="evenodd"/><path stroke="#434343" stroke-width="1.0" stroke-linejoin="round" stroke-linecap="butt" d="m79.11286 276.2861l0 0c0 -3.113678 2.5241241 -5.6378174 5.6377945 -5.6378174l0 0c1.4952393 0 2.9292297 0.59399414 3.9865265 1.6512756c1.0572891 1.057312 1.651268 2.4913025 1.651268 3.9865417l0 0c0 3.1136475 -2.5241241 5.637787 -5.6377945 5.637787l0 0c-3.1136703 0 -5.6377945 -2.5241394 -5.6377945 -5.637787z" fill-rule="evenodd"/><path fill="#434343" d="m462.16797 419.48294l0 0c0 -3.113678 2.5241394 -5.637787 5.6378174 -5.637787l0 0c1.4952393 0 2.9292297 0.5939636 3.9865112 1.6512756c1.0572815 1.0572815 1.6512756 2.491272 1.6512756 3.9865112l0 0c0 3.113678 -2.5241394 5.637787 -5.637787 5.637787l0 0c-3.113678 0 -5.6378174 -2.524109 -5.6378174 -5.637787z" fill-rule="evenodd"/><path stroke="#434343" stroke-width="1.0" stroke-linejoin="round" stroke-linecap="butt" d="m462.16797 419.48294l0 0c0 -3.113678 2.5241394 -5.637787 5.6378174 -5.637787l0 0c1.4952393 0 2.9292297 0.5939636 3.9865112 1.6512756c1.0572815 1.0572815 1.6512756 2.491272 1.6512756 3.9865112l0 0c0 3.113678 -2.5241394 5.637787 -5.637787 5.637787l0 0c-3.113678 0 -5.6378174 -2.524109 -5.6378174 -5.637787z" fill-rule="evenodd"/><path fill="#434343" d="m453.69028 20.795275l0 0c0 -3.1136684 2.5241394 -5.6377945 5.6378174 -5.6377945l0 0c1.4952393 0 2.9292297 0.5939808 3.9865112 1.6512718c1.0572815 1.057291 1.6512756 2.4912872 1.6512756 3.9865227l0 0c0 3.1136684 -2.5241394 5.6377964 -5.637787 5.6377964l0 0c-3.113678 0 -5.6378174 -2.524128 -5.6378174 -5.6377964z" fill-rule="evenodd"/><path stroke="#434343" stroke-width="1.0" stroke-linejoin="round" stroke-linecap="butt" d="m453.69028 20.795275l0 0c0 -3.1136684 2.5241394 -5.6377945 5.6378174 -5.6377945l0 0c1.4952393 0 2.9292297 0.5939808 3.9865112 1.6512718c1.0572815 1.057291 1.6512756 2.4912872 1.6512756 3.9865227l0 0c0 3.1136684 -2.5241394 5.6377964 -5.637787 5.6377964l0 0c-3.113678 0 -5.6378174 -2.524128 -5.6378174 -5.6377964z" fill-rule="evenodd"/><path fill="#434343" d="m533.15485 49.624672l0 0c0 -3.1136665 2.524109 -5.6377945 5.6378174 -5.6377945l0 0c1.4952393 0 2.9291992 0.5939789 3.9865112 1.6512718c1.057312 1.0572929 1.6512451 2.4912872 1.6512451 3.9865227l0 0c0 3.1136665 -2.524109 5.6377945 -5.6377563 5.6377945l0 0c-3.1137085 0 -5.6378174 -2.524128 -5.6378174 -5.6377945z" fill-rule="evenodd"/><path stroke="#434343" stroke-width="1.0" stroke-linejoin="round" stroke-linecap="butt" d="m533.15485 49.624672l0 0c0 -3.1136665 2.524109 -5.6377945 5.6378174 -5.6377945l0 0c1.4952393 0 2.9291992 0.5939789 3.9865112 1.6512718c1.057312 1.0572929 1.6512451 2.4912872 1.6512451 3.9865227l0 0c0 3.1136665 -2.524109 5.6377945 -5.6377563 5.6377945l0 0c-3.1137085 0 -5.6378174 -2.524128 -5.6378174 -5.6377945z" fill-rule="evenodd"/></g></svg>